<mxfile host="app.diagrams.net" modified="2022-06-12T14:17:05.496Z" agent="5.0 (Windows NT 10.0; Win64; x64) AppleWebKit/537.36 (KHTML, like Gecko) Chrome/102.0.5005.115 Safari/537.36" etag="lOz26kzWpztpvuysG8aq" version="19.0.3" type="github">
  <diagram id="JjB5pV8MMW293R93ijJJ" name="Page-1">
    <mxGraphModel dx="545" dy="851" grid="1" gridSize="10" guides="1" tooltips="1" connect="1" arrows="1" fold="1" page="1" pageScale="1" pageWidth="827" pageHeight="1169" math="0" shadow="0">
      <root>
        <mxCell id="0" />
        <mxCell id="1" parent="0" />
        <mxCell id="lF5-X0VvjZTqCBIyf01q-8" style="edgeStyle=orthogonalEdgeStyle;rounded=0;orthogonalLoop=1;jettySize=auto;html=1;exitX=1;exitY=0.5;exitDx=0;exitDy=0;entryX=0;entryY=0.5;entryDx=0;entryDy=0;endArrow=classic;endFill=1;startArrow=diamondThin;startFill=0;" edge="1" parent="1" source="lF5-X0VvjZTqCBIyf01q-1" target="lF5-X0VvjZTqCBIyf01q-2">
          <mxGeometry relative="1" as="geometry" />
        </mxCell>
        <mxCell id="lF5-X0VvjZTqCBIyf01q-1" value="&lt;p style=&quot;margin:0px;margin-top:4px;text-align:center;&quot;&gt;&lt;b style=&quot;background-color: rgb(204, 255, 255);&quot;&gt;Context&lt;/b&gt;&lt;/p&gt;&lt;hr size=&quot;1&quot;&gt;&lt;p style=&quot;margin:0px;margin-left:4px;&quot;&gt;+ doSomething()&lt;/p&gt;" style="verticalAlign=top;align=left;overflow=fill;fontSize=12;fontFamily=Helvetica;html=1;" vertex="1" parent="1">
          <mxGeometry x="120" y="230" width="120" height="70" as="geometry" />
        </mxCell>
        <mxCell id="lF5-X0VvjZTqCBIyf01q-2" value="&lt;p style=&quot;margin:0px;margin-top:4px;text-align:center;&quot;&gt;&lt;b style=&quot;background-color: rgb(204, 255, 255);&quot;&gt;Strategy&lt;/b&gt;&lt;/p&gt;&lt;hr size=&quot;1&quot;&gt;&lt;p style=&quot;margin:0px;margin-left:4px;&quot;&gt;+ algorithm()&lt;/p&gt;" style="verticalAlign=top;align=left;overflow=fill;fontSize=12;fontFamily=Helvetica;html=1;" vertex="1" parent="1">
          <mxGeometry x="360" y="230" width="120" height="70" as="geometry" />
        </mxCell>
        <mxCell id="lF5-X0VvjZTqCBIyf01q-4" style="edgeStyle=orthogonalEdgeStyle;rounded=0;orthogonalLoop=1;jettySize=auto;html=1;exitX=0.5;exitY=0;exitDx=0;exitDy=0;entryX=0.5;entryY=1;entryDx=0;entryDy=0;endArrow=block;endFill=0;" edge="1" parent="1" source="lF5-X0VvjZTqCBIyf01q-3" target="lF5-X0VvjZTqCBIyf01q-2">
          <mxGeometry relative="1" as="geometry" />
        </mxCell>
        <mxCell id="lF5-X0VvjZTqCBIyf01q-3" value="&lt;p style=&quot;margin:0px;margin-top:4px;text-align:center;&quot;&gt;&lt;b style=&quot;background-color: rgb(230, 230, 230);&quot;&gt;ConStrategy&lt;/b&gt;&lt;/p&gt;&lt;hr size=&quot;1&quot;&gt;&lt;p style=&quot;margin:0px;margin-left:4px;&quot;&gt;-//-&lt;/p&gt;" style="verticalAlign=top;align=left;overflow=fill;fontSize=12;fontFamily=Helvetica;html=1;" vertex="1" parent="1">
          <mxGeometry x="360" y="390" width="120" height="70" as="geometry" />
        </mxCell>
        <mxCell id="lF5-X0VvjZTqCBIyf01q-6" style="edgeStyle=orthogonalEdgeStyle;rounded=0;orthogonalLoop=1;jettySize=auto;html=1;exitX=0;exitY=0.5;exitDx=0;exitDy=0;endArrow=classic;endFill=1;" edge="1" parent="1" source="lF5-X0VvjZTqCBIyf01q-5" target="lF5-X0VvjZTqCBIyf01q-1">
          <mxGeometry relative="1" as="geometry" />
        </mxCell>
        <mxCell id="lF5-X0VvjZTqCBIyf01q-7" style="edgeStyle=orthogonalEdgeStyle;rounded=0;orthogonalLoop=1;jettySize=auto;html=1;exitX=1;exitY=0.5;exitDx=0;exitDy=0;entryX=1;entryY=0.5;entryDx=0;entryDy=0;endArrow=classic;endFill=1;" edge="1" parent="1" source="lF5-X0VvjZTqCBIyf01q-5" target="lF5-X0VvjZTqCBIyf01q-3">
          <mxGeometry relative="1" as="geometry">
            <Array as="points">
              <mxPoint x="520" y="135" />
              <mxPoint x="520" y="425" />
            </Array>
          </mxGeometry>
        </mxCell>
        <mxCell id="lF5-X0VvjZTqCBIyf01q-5" value="&lt;p style=&quot;margin:0px;margin-top:4px;text-align:center;&quot;&gt;&lt;b style=&quot;background-color: rgb(230, 230, 230);&quot;&gt;Client&lt;/b&gt;&lt;/p&gt;&lt;hr size=&quot;1&quot;&gt;&lt;p style=&quot;margin:0px;margin-left:4px;&quot;&gt;&lt;br&gt;&lt;/p&gt;" style="verticalAlign=top;align=left;overflow=fill;fontSize=12;fontFamily=Helvetica;html=1;" vertex="1" parent="1">
          <mxGeometry x="240" y="100" width="120" height="70" as="geometry" />
        </mxCell>
        <mxCell id="lF5-X0VvjZTqCBIyf01q-9" value="1" style="text;html=1;align=center;verticalAlign=middle;resizable=0;points=[];autosize=1;strokeColor=none;fillColor=none;" vertex="1" parent="1">
          <mxGeometry x="330" y="240" width="20" height="20" as="geometry" />
        </mxCell>
        <mxCell id="lF5-X0VvjZTqCBIyf01q-11" style="edgeStyle=orthogonalEdgeStyle;rounded=0;orthogonalLoop=1;jettySize=auto;html=1;exitX=0.5;exitY=1;exitDx=0;exitDy=0;startArrow=none;startFill=0;endArrow=classic;endFill=1;curved=1;" edge="1" parent="1" source="lF5-X0VvjZTqCBIyf01q-10">
          <mxGeometry relative="1" as="geometry">
            <mxPoint x="520" y="450" as="targetPoint" />
            <Array as="points">
              <mxPoint x="185" y="520" />
              <mxPoint x="520" y="520" />
            </Array>
          </mxGeometry>
        </mxCell>
        <mxCell id="lF5-X0VvjZTqCBIyf01q-10" value="Клиент может установить для нашего класса конкретную стратегию (алгоритм) и, работая с объектом, он будет вызывать конкретный алгоритм. Во время работы этот алгоритм можно будет поменять" style="text;html=1;strokeColor=none;fillColor=#CCFFFF;align=center;verticalAlign=middle;whiteSpace=wrap;rounded=0;fontSize=11;fontStyle=1" vertex="1" parent="1">
          <mxGeometry x="90" y="370" width="190" height="130" as="geometry" />
        </mxCell>
        <mxCell id="lF5-X0VvjZTqCBIyf01q-12" value="&lt;b&gt;Стратегия&lt;/b&gt;" style="text;html=1;strokeColor=none;fillColor=none;align=center;verticalAlign=middle;whiteSpace=wrap;rounded=0;fontSize=22;" vertex="1" parent="1">
          <mxGeometry x="360" y="90" width="175" height="30" as="geometry" />
        </mxCell>
        <mxCell id="lF5-X0VvjZTqCBIyf01q-13" value="" style="rounded=0;whiteSpace=wrap;html=1;labelBackgroundColor=#E6E6E6;fillColor=none;strokeColor=none;" vertex="1" parent="1">
          <mxGeometry x="40" y="70" width="530" height="490" as="geometry" />
        </mxCell>
      </root>
    </mxGraphModel>
  </diagram>
</mxfile>
